<svg id="Capa_1" enable-background="new 0 0 512 512" height="512" viewBox="0 0 512 512" width="512" xmlns="http://www.w3.org/2000/svg" xmlns:xlink="http://www.w3.org/1999/xlink"><linearGradient id="SVGID_1_" gradientUnits="userSpaceOnUse" x1="74.981" x2="437.019" y1="437.019" y2="74.981"><stop offset="0" stop-color="#00aa45"/><stop offset="1" stop-color="#d3ff33"/></linearGradient><radialGradient id="SVGID_2_" cx="256" cy="256" gradientUnits="userSpaceOnUse" r="256"><stop offset="0" stop-color="#00aa45" stop-opacity=".8"/><stop offset=".2239" stop-color="#2bbb41" stop-opacity=".621"/><stop offset=".7258" stop-color="#96e638" stop-opacity=".219"/><stop offset="1" stop-color="#d3ff33" stop-opacity="0"/></radialGradient><radialGradient id="SVGID_3_" cx="378.683" cy="256" gradientTransform="matrix(1 0 0 2.38 0 -353.236)" gradientUnits="userSpaceOnUse" r="90.718"><stop offset=".1508" stop-color="#00aa45"/><stop offset=".3315" stop-color="#13b243" stop-opacity=".673"/><stop offset=".5153" stop-color="#1fb642" stop-opacity=".341"/><stop offset=".7039" stop-color="#23b842" stop-opacity="0"/></radialGradient><radialGradient id="SVGID_4_" cx="256" cy="286.75" gradientTransform="matrix(1 0 0 2.871 0 -536.388)" gradientUnits="userSpaceOnUse" r="61.582"><stop offset=".2179" stop-color="#00aa45"/><stop offset=".3383" stop-color="#0caf44" stop-opacity=".763"/><stop offset=".5599" stop-color="#1db643" stop-opacity=".327"/><stop offset=".7263" stop-color="#23b842" stop-opacity="0"/></radialGradient><linearGradient id="lg1"><stop offset="0" stop-color="#b8ef5c"/><stop offset=".4619" stop-color="#daf7a9"/><stop offset="1" stop-color="#fff"/></linearGradient><linearGradient id="SVGID_5_" gradientUnits="userSpaceOnUse" x1="297.867" x2="486.535" xlink:href="#lg1" y1="334.237" y2="145.568"/><linearGradient id="SVGID_6_" gradientUnits="userSpaceOnUse" x1="184.857" x2="344.405" xlink:href="#lg1" y1="357.643" y2="198.095"/><radialGradient id="SVGID_7_" cx="133.317" cy="317.185" gradientTransform="matrix(1 0 0 1.706 0 -224.064)" gradientUnits="userSpaceOnUse" r="74.55"><stop offset=".2179" stop-color="#00aa45"/><stop offset=".4204" stop-color="#12b143" stop-opacity=".685"/><stop offset=".6469" stop-color="#1fb642" stop-opacity=".332"/><stop offset=".8603" stop-color="#23b842" stop-opacity="0"/></radialGradient><linearGradient id="SVGID_8_" gradientUnits="userSpaceOnUse" x1="79.315" x2="206.103" xlink:href="#lg1" y1="371.788" y2="245.001"/><linearGradient id="lg2"><stop offset=".1955" stop-color="#95e12e"/><stop offset=".2897" stop-color="#9de23a" stop-opacity=".977"/><stop offset="1" stop-color="#d4ed90" stop-opacity=".8"/></linearGradient><linearGradient id="SVGID_9_" gradientUnits="userSpaceOnUse" x1="71.129" x2="148.52" xlink:href="#lg2" y1="379.901" y2="302.51"/><linearGradient id="SVGID_10_" gradientUnits="userSpaceOnUse" x1="191.581" x2="271.223" xlink:href="#lg2" y1="381.628" y2="301.985"/><linearGradient id="SVGID_11_" gradientUnits="userSpaceOnUse" x1="312.773" x2="393.146" xlink:href="#lg2" y1="381.336" y2="300.964"/><linearGradient id="SVGID_12_" gradientUnits="userSpaceOnUse" x1="271.366" x2="420.138" y1="272.932" y2="124.16"><stop offset="0" stop-color="#b8ef5c"/><stop offset=".5705" stop-color="#e9facd"/><stop offset=".8436" stop-color="#fff"/></linearGradient><g><circle cx="256" cy="256" fill="url(#SVGID_1_)" r="256"/><circle cx="256" cy="256" fill="url(#SVGID_2_)" r="256"/><path d="m346 439.542c-24.755.55-44.687-19.937-44.508-45.346.844-92.13.844-184.26 0-276.391-.179-25.409 19.753-45.896 44.508-45.347 20 .426 40 .994 60 1.704 24.749.925 46.078 22.081 47.133 46.837 3.656 90 3.656 180 0 270-1.055 24.753-22.384 45.909-47.133 46.837-20 .711-40 1.279-60 1.706z" fill="url(#SVGID_3_)"/><path d="m226 440.394c-24.752-.187-45.382-21.203-45.82-46.518-1.094-71.491-1.337-142.982-.729-214.473.246-25.32 21.018-46.2 46.133-46.332 20.278-.094 40.556-.094 60.833 0 25.116.132 45.885 21.016 46.133 46.332.608 71.491.365 142.982-.729 214.473-.438 25.317-21.069 46.331-45.82 46.518-20.001.142-40.001.142-60.001 0z" fill="url(#SVGID_4_)"/><path d="m331.82 118.124c1.406 91.917 1.406 183.834 0 275.751-.124 8.462 6.526 15.225 14.867 15.075 20.153-.355 40.306-.828 60.458-1.42 8.342-.25 15.368-7.234 15.659-15.573 3.094-90.639 3.094-181.278 0-271.917-.289-8.338-7.318-15.323-15.659-15.573-20.153-.591-40.306-1.064-60.458-1.42-8.342-.149-14.99 6.614-14.867 15.077z" fill="url(#SVGID_5_)"/><path d="m210.07 179.225c-.365 71.657-.219 143.313.438 214.97.083 8.479 6.921 15.416 15.263 15.466 20.153.119 40.306.119 60.458 0 8.342-.05 15.18-6.987 15.263-15.466.656-71.657.802-143.313.438-214.97-.044-8.48-6.931-15.391-15.367-15.422-20.375-.071-40.75-.071-61.125 0-8.438.031-15.322 6.943-15.368 15.422z" fill="url(#SVGID_6_)"/><path d="m106 437.837c-24.748-.924-46.076-22.083-47.133-46.837-2.031-50-2.934-100-2.708-150 .121-24.758 21.168-45.27 46.508-45.612 20.445-.237 40.889-.426 61.333-.568 25.345-.195 45.894 20.415 45.883 45.826-.052 51.184.156 102.366.625 153.55.178 25.408-19.753 45.897-44.508 45.346-20-.427-40-.995-60-1.705z" fill="url(#SVGID_7_)"/><path d="m86.904 240.893c-.191 50.355.573 100.71 2.292 151.065.29 8.339 7.317 15.321 15.659 15.573 20.153.592 40.305 1.065 60.458 1.42 8.342.149 14.99-6.613 14.867-15.075-.781-51.065-1.128-102.13-1.042-153.195.014-8.461-6.842-15.305-15.325-15.271-20.486.071-40.972.166-61.458.284-8.487.052-15.419 6.861-15.451 15.199z" fill="url(#SVGID_8_)"/><path d="m108.962 345.487c-7.71-35.002-15.119-69.876-22.058-104.594-.191 50.355.573 100.71 2.292 151.065.29 8.338 7.317 15.321 15.659 15.573 20.153.592 40.305 1.065 60.458 1.42-28.198-9.98-49.898-34.314-56.351-63.464z" fill="url(#SVGID_9_)"/><path d="m231.237 346.665c-7.144-35.364-14.32-70.714-21.354-106.02-.052 51.184.156 102.367.625 153.55.083 8.478 6.921 15.417 15.263 15.466 20.153.119 40.306.119 60.458 0-27.939-9.344-49.007-33.52-54.992-62.996z" fill="url(#SVGID_10_)"/><path d="m353.512 346.166c-6.579-35.073-13.52-70.245-20.65-105.486.087 51.065-.26 102.13-1.042 153.195-.124 8.461 6.526 15.225 14.867 15.075 20.153-.355 40.306-.828 60.458-1.42-27.682-8.527-48.117-32.108-53.633-61.364z" fill="url(#SVGID_11_)"/><path d="m407.146 104.468c-20.148-.591-40.295-1.065-60.443-1.419 13.913 44.742 41.668 83.552 78.2 110.892-.33-31.3-1.03-62.6-2.098-93.9-.289-8.338-7.319-15.323-15.659-15.573z" fill="url(#SVGID_12_)"/></g></svg>