<svg id="Capa_1" enable-background="new 0 0 512 512" height="512" viewBox="0 0 512 512" width="512" xmlns="http://www.w3.org/2000/svg" xmlns:xlink="http://www.w3.org/1999/xlink"><linearGradient id="SVGID_1_" gradientUnits="userSpaceOnUse" x1="74.981" x2="437.019" y1="437.019" y2="74.981"><stop offset="0" stop-color="#ff4c4c"/><stop offset="1" stop-color="#fff200"/></linearGradient><radialGradient id="SVGID_2_" cx="256" cy="256" gradientUnits="userSpaceOnUse" r="256"><stop offset="0" stop-color="#ff4c4c"/><stop offset=".1081" stop-color="#ff544e" stop-opacity=".887"/><stop offset=".2693" stop-color="#ff6853" stop-opacity=".718"/><stop offset=".4637" stop-color="#ff895c" stop-opacity=".514"/><stop offset=".6838" stop-color="#ffb767" stop-opacity=".283"/><stop offset=".9228" stop-color="#fff276" stop-opacity=".033"/><stop offset=".9537" stop-color="#fffa78" stop-opacity="0"/></radialGradient><linearGradient id="lg1"><stop offset="0" stop-color="#ffb11d"/><stop offset="1" stop-color="#feffd6"/></linearGradient><linearGradient id="SVGID_3_" gradientUnits="userSpaceOnUse" x1="-93.2" x2="450.856" xlink:href="#lg1" y1="605.2" y2="61.144"/><linearGradient id="lg2"><stop offset="0" stop-color="#ff8c00"/><stop offset="1" stop-color="#fffa78"/></linearGradient><linearGradient id="SVGID_4_" gradientUnits="userSpaceOnUse" x1="74.872" x2="412.316" xlink:href="#lg2" y1="437.128" y2="99.684"/><radialGradient id="SVGID_5_" cx="256" cy="256" gradientUnits="userSpaceOnUse" r="199.344"><stop offset="0" stop-color="#ffcb00" stop-opacity="0"/><stop offset=".3171" stop-color="#ffc800" stop-opacity=".317"/><stop offset=".5411" stop-color="#ffbf00" stop-opacity=".541"/><stop offset=".7363" stop-color="#ffaf00" stop-opacity=".736"/><stop offset=".9142" stop-color="#ff9a00" stop-opacity=".914"/><stop offset="1" stop-color="#ff8c00"/></radialGradient><linearGradient id="SVGID_6_" gradientUnits="userSpaceOnUse" x1="39.534" x2="355.465" xlink:href="#lg1" y1="472.466" y2="156.535"/><linearGradient id="SVGID_7_" gradientUnits="userSpaceOnUse" x1="125.713" x2="344.862" xlink:href="#lg1" y1="387.935" y2="168.785"/><linearGradient id="SVGID_8_" gradientUnits="userSpaceOnUse" x1="157.475" x2="353.928" xlink:href="#lg2" y1="371.414" y2="174.961"/><linearGradient id="SVGID_9_" gradientUnits="userSpaceOnUse" x1="151.855" x2="384.506" xlink:href="#lg2" y1="352.498" y2="119.846"/><g><circle cx="256" cy="256" fill="url(#SVGID_1_)" r="256"/><circle cx="256" cy="256" fill="url(#SVGID_2_)" r="256"/><circle cx="256" cy="256" fill="url(#SVGID_3_)" r="200.9"/><circle cx="256" cy="256" fill="url(#SVGID_4_)" r="154.775"/><circle cx="256" cy="256" fill="url(#SVGID_5_)" r="154.775"/><circle cx="256" cy="256" fill="url(#SVGID_6_)" r="131.712"/><path d="m271.28 356.948c-72.039.007-131.772-59.584-131.551-131.447.065-14.927 2.707-29.277 7.471-42.698-14.398 21.034-22.917 46.175-22.912 73.196.158 71.655 60.057 131.553 131.712 131.712 56.931-.019 106.138-37.957 124.395-89.138-23.929 34.794-64.024 58.293-109.115 58.375z" fill="url(#SVGID_7_)"/><path d="m278.98 179.15c-5.107-.011-10.213-.018-15.32-.022.037 51.249.037 102.496 0 153.745 5.107-.003 10.213-.011 15.32-.022 4.23-.008 7.669-3.459 7.681-7.702.119-46.099.119-92.197 0-138.296-.011-4.244-3.451-7.694-7.681-7.703z" fill="url(#SVGID_8_)"/><path d="m271.331 325.177c.059-46.118.059-92.237 0-138.355-.006-4.245-3.44-7.691-7.671-7.695-10.213-.007-20.427 0-30.64.022-4.23.007-7.67 3.459-7.681 7.702-.119 46.099-.119 92.197 0 138.296.011 4.244 3.451 7.695 7.681 7.702 10.213.022 20.427.029 30.64.022 4.23-.002 7.665-3.45 7.671-7.694z" fill="url(#SVGID_9_)"/></g></svg>