<svg id="Capa_1" enable-background="new 0 0 512 512" height="512" viewBox="0 0 512 512" width="512" xmlns="http://www.w3.org/2000/svg" xmlns:xlink="http://www.w3.org/1999/xlink"><linearGradient id="SVGID_1_" gradientUnits="userSpaceOnUse" x1="74.981" x2="437.02" y1="437.019" y2="74.98"><stop offset="0" stop-color="#ff4031"/><stop offset="1" stop-color="#ff9ceb"/></linearGradient><radialGradient id="SVGID_2_" cx="256.001" cy="256" gradientUnits="userSpaceOnUse" r="256"><stop offset="0" stop-color="#ff4031"/><stop offset=".1093" stop-color="#ff453c" stop-opacity=".891"/><stop offset=".2991" stop-color="#ff5358" stop-opacity=".701"/><stop offset=".5467" stop-color="#ff6a86" stop-opacity=".453"/><stop offset=".8392" stop-color="#ff89c5" stop-opacity=".161"/><stop offset="1" stop-color="#ff9ceb" stop-opacity="0"/></radialGradient><linearGradient id="lg1"><stop offset="0" stop-color="#ff79a2"/><stop offset=".3028" stop-color="#ff95b9"/><stop offset=".7584" stop-color="#ffbad7"/><stop offset="1" stop-color="#ffc8e3"/></linearGradient><linearGradient id="SVGID_3_" gradientUnits="userSpaceOnUse" x1="130.208" x2="383.253" xlink:href="#lg1" y1="195.277" y2="-57.767"/><linearGradient id="SVGID_4_" gradientUnits="userSpaceOnUse" x1="152.285" x2="361.937" xlink:href="#lg1" y1="232.854" y2="23.202"/><linearGradient id="SVGID_5_" gradientUnits="userSpaceOnUse" x1="59.466" x2="448.499" y1="461.948" y2="72.916"><stop offset="0" stop-color="#ffceec"/><stop offset=".9015" stop-color="#fffafd"/><stop offset="1" stop-color="#fff"/></linearGradient><linearGradient id="SVGID_6_" gradientUnits="userSpaceOnUse" x1="118.836" x2="397.158" y1="467.311" y2="188.989"><stop offset="0" stop-color="#ff4031"/><stop offset="1" stop-color="#ff79a2"/></linearGradient><radialGradient id="SVGID_7_" cx="253.922" cy="238.372" gradientUnits="userSpaceOnUse" r="276.201"><stop offset="0" stop-color="#ff4031" stop-opacity=".6"/><stop offset=".6918" stop-color="#ff5f5c" stop-opacity=".185"/><stop offset="1" stop-color="#ff6e70" stop-opacity="0"/></radialGradient><linearGradient id="SVGID_8_" gradientUnits="userSpaceOnUse" x1="256" x2="256" y1="221.048" y2="410.271"><stop offset="0" stop-color="#ff4031"/><stop offset=".3022" stop-color="#ff4031" stop-opacity="0"/></linearGradient><linearGradient id="lg2"><stop offset="0" stop-color="#ffb5d3"/><stop offset=".574" stop-color="#ffc7e5"/><stop offset="1" stop-color="#ffceec"/></linearGradient><linearGradient id="SVGID_9_" gradientUnits="userSpaceOnUse" x1="189.896" x2="464.446" xlink:href="#lg2" y1="307.141" y2="32.591"/><linearGradient id="SVGID_10_" gradientUnits="userSpaceOnUse" x1="47.57" x2="314.106" xlink:href="#lg2" y1="423.749" y2="157.213"/><g><circle cx="256" cy="256" fill="url(#SVGID_1_)" r="256"/><circle cx="256" cy="256" fill="url(#SVGID_2_)" r="256"/><path d="m146.321 64.295c-19.239 24.068-38.69 48.035-58.128 71.705 36.045 11.956 72.389 24.68 108.895 37.758 36.653-13.521 73.194-26.983 109.484-39.974-54.168-24.122-107.8-47.823-160.251-69.489z" fill="url(#SVGID_3_)"/><path d="m365.679 64.295c-2.962-3.704-7.331-5.952-11.889-6.093-65.194-2.02-130.387-2.02-195.581 0-4.557.143-8.928 2.389-11.889 6.093 39.871 43.473 98.843 69 160.251 69.488.163 20.455.276 40.909.338 61.364 39.277-20.323 78.359-40.283 116.897-59.148-19.437-23.669-38.888-47.636-58.127-71.704z" fill="url(#SVGID_4_)"/><path d="m88.193 136c-2.298 85-1.591 170 2.121 255 .367 8.275 7.409 15.349 15.686 15.749 5 .238 10 .463 15 .677 44.413-13.199 89.49-27.863 135-43.238 45.51 15.375 90.587 30.039 135 43.238 5-.214 10-.439 15-.677 8.276-.4 15.318-7.472 15.686-15.749 3.712-85 4.419-170 2.121-255-111.871-3.25-223.743-3.25-335.614 0z" fill="url(#SVGID_5_)"/><path d="m394.318 256.186c-46.055-9.832-92.195-20.124-138.318-30.374-46.123 10.25-92.263 20.542-138.318 30.374.255 50.413 1.361 100.826 3.318 151.24 90 3.849 180 3.849 270 0 1.956-50.413 3.062-100.827 3.318-151.24z" fill="url(#SVGID_6_)"/><path d="m394.318 256.186c-46.055-9.832-92.195-20.124-138.318-30.374-46.123 10.25-92.263 20.542-138.318 30.374.255 50.413 1.361 100.826 3.318 151.24 90 3.849 180 3.849 270 0 1.956-50.413 3.062-100.827 3.318-151.24z" fill="url(#SVGID_7_)"/><path d="m394.318 256.186c-46.055-9.832-92.195-20.124-138.318-30.374-46.123 10.25-92.263 20.542-138.318 30.374.255 50.413 1.361 100.826 3.318 151.24 90 3.849 180 3.849 270 0 1.956-50.413 3.062-100.827 3.318-151.24z" fill="url(#SVGID_8_)"/><path d="m394.369 225.938c-46.14-10.167-92.297-20.625-138.369-30.875-46.072 10.25-92.229 20.709-138.369 30.875-.017 10.083 0 20.165.051 30.248 92.212.502 184.423.502 276.635 0 .052-10.083.069-20.165.052-30.248z" fill="url(#SVGID_9_)"/><path d="m378.858 195.558c-81.905-.661-163.811-.661-245.716 0-8.48.073-15.417 6.909-15.459 15.256-.025 5.041-.043 10.083-.051 15.124 92.246-.167 184.492-.167 276.737 0-.008-5.041-.026-10.083-.051-15.124-.043-8.347-6.98-15.182-15.46-15.256z" fill="url(#SVGID_10_)"/></g></svg>